<svg xmlns="http://www.w3.org/2000/svg" xmlns:xlink="http://www.w3.org/1999/xlink" id="a" viewBox="0 0 58.361 60.328"><defs><style>.c{fill:#2a59ee;}.d{clip-path:url(#b);}.e,.f{fill:none;}.f{stroke:#2a59ee;stroke-miterlimit:10;stroke-width:.5px;}</style><clipPath id="b"><rect class="e" width="58.361" height="60.328"></rect></clipPath></defs><g class="d"><path class="c" d="M21.5399,46.7507c-.345,0-.625-.28-.625-.625v-3c0-.345,.28-.625,.625-.625s.625,.28,.625,.625v3c0,.345-.28,.625-.625,.625"></path><path class="f" d="M21.5399,46.7507c-.345,0-.625-.28-.625-.625v-3c0-.345,.28-.625,.625-.625s.625,.28,.625,.625v3c0,.345-.28,.625-.625,.625Z"></path><path class="c" d="M25.5399,46.7507c-.345,0-.625-.28-.625-.625v-3c0-.345,.28-.625,.625-.625s.625,.28,.625,.625v3c0,.345-.28,.625-.625,.625"></path><path class="f" d="M25.5399,46.7507c-.345,0-.625-.28-.625-.625v-3c0-.345,.28-.625,.625-.625s.625,.28,.625,.625v3c0,.345-.28,.625-.625,.625Z"></path><path class="c" d="M29.5399,46.7507c-.345,0-.625-.28-.625-.625v-3c0-.345,.28-.625,.625-.625s.625,.28,.625,.625v3c0,.345-.28,.625-.625,.625"></path><path class="f" d="M29.5399,46.7507c-.345,0-.625-.28-.625-.625v-3c0-.345,.28-.625,.625-.625s.625,.28,.625,.625v3c0,.345-.28,.625-.625,.625Z"></path><path class="c" d="M34.5399,56.2507H16.5399c-.345,0-.625-.28-.625-.625v-22c0-.201,.097-.39,.26-.507,.162-.117,.373-.15,.563-.086l18,6c.255,.085,.427,.324,.427,.593v16c0,.345-.28,.625-.625,.625m-17.375-1.25h16.75v-14.924l-16.75-5.584v20.508Z"></path><path class="f" d="M34.5399,56.2507H16.5399c-.345,0-.625-.28-.625-.625v-22c0-.201,.097-.39,.26-.507,.162-.117,.373-.15,.563-.086l18,6c.255,.085,.427,.324,.427,.593v16c0,.345-.28,.625-.625,.625Zm-17.375-1.25h16.75v-14.924l-16.75-5.584v20.508Z"></path><path class="c" d="M39.5399,46.7507c-.345,0-.625-.28-.625-.625v-3c0-.345,.28-.625,.625-.625s.625,.28,.625,.625v3c0,.345-.28,.625-.625,.625"></path><path class="f" d="M39.5399,46.7507c-.345,0-.625-.28-.625-.625v-3c0-.345,.28-.625,.625-.625s.625,.28,.625,.625v3c0,.345-.28,.625-.625,.625Z"></path><path class="c" d="M43.5399,46.7507c-.345,0-.625-.28-.625-.625v-3c0-.345,.28-.625,.625-.625s.625,.28,.625,.625v3c0,.345-.28,.625-.625,.625"></path><path class="f" d="M43.5399,46.7507c-.345,0-.625-.28-.625-.625v-3c0-.345,.28-.625,.625-.625s.625,.28,.625,.625v3c0,.345-.28,.625-.625,.625Z"></path><path class="c" d="M47.5399,46.7507c-.345,0-.625-.28-.625-.625v-3c0-.345,.28-.625,.625-.625s.625,.28,.625,.625v3c0,.345-.28,.625-.625,.625"></path><path class="f" d="M47.5399,46.7507c-.345,0-.625-.28-.625-.625v-3c0-.345,.28-.625,.625-.625s.625,.28,.625,.625v3c0,.345-.28,.625-.625,.625Z"></path><path class="c" d="M52.5399,56.2507h-18c-.345,0-.625-.28-.625-.625v-22c0-.201,.097-.39,.26-.507,.162-.117,.372-.15,.563-.086l18,6c.255,.085,.427,.324,.427,.593v16c0,.345-.28,.625-.625,.625m-17.375-1.25h16.75v-14.924l-16.75-5.584v20.508Z"></path><path class="f" d="M52.5399,56.2507h-18c-.345,0-.625-.28-.625-.625v-22c0-.201,.097-.39,.26-.507,.162-.117,.372-.15,.563-.086l18,6c.255,.085,.427,.324,.427,.593v16c0,.345-.28,.625-.625,.625Zm-17.375-1.25h16.75v-14.924l-16.75-5.584v20.508Z"></path><path class="c" d="M55.5399,56.2507H3.5399c-.345,0-.625-.28-.625-.625s.28-.625,.625-.625H55.5399c.345,0,.625,.28,.625,.625s-.28,.625-.625,.625"></path><path class="f" d="M55.5399,56.2507H3.5399c-.345,0-.625-.28-.625-.625s.28-.625,.625-.625H55.5399c.345,0,.625,.28,.625,.625s-.28,.625-.625,.625Z"></path><path class="c" d="M17.5399,26.2507H5.5399c-.345,0-.625-.28-.625-.625s.28-.625,.625-.625h12c.345,0,.625,.28,.625,.625s-.28,.625-.625,.625"></path><path class="f" d="M17.5399,26.2507H5.5399c-.345,0-.625-.28-.625-.625s.28-.625,.625-.625h12c.345,0,.625,.28,.625,.625s-.28,.625-.625,.625Z"></path><path class="c" d="M6.5399,56.1257c-.345,0-.625-.28-.625-.625V20.6257c0-.345,.28-.625,.625-.625h10c.345,0,.625,.28,.625,.625v10c0,.345-.28,.625-.625,.625s-.625-.28-.625-.625v-9.375H7.1649V55.5007c0,.345-.28,.625-.625,.625"></path><path class="f" d="M6.5399,56.1257c-.345,0-.625-.28-.625-.625V20.6257c0-.345,.28-.625,.625-.625h10c.345,0,.625,.28,.625,.625v10c0,.345-.28,.625-.625,.625s-.625-.28-.625-.625v-9.375H7.1649V55.5007c0,.345-.28,.625-.625,.625Z"></path><path class="c" d="M45.5399,26.2507h-12c-.345,0-.625-.28-.625-.625s.28-.625,.625-.625h12c.345,0,.625,.28,.625,.625s-.28,.625-.625,.625"></path><path class="f" d="M45.5399,26.2507h-12c-.345,0-.625-.28-.625-.625s.28-.625,.625-.625h12c.345,0,.625,.28,.625,.625s-.28,.625-.625,.625Z"></path><path class="c" d="M44.5399,34.5842c-.345,0-.625-.28-.625-.625v-12.708h-8.75v9.375c0,.345-.28,.625-.625,.625s-.625-.28-.625-.625v-10c0-.346,.28-.625,.625-.625h10c.345,0,.625,.279,.625,.625v13.333c0,.345-.28,.625-.625,.625"></path><path class="f" d="M44.5399,34.5842c-.345,0-.625-.28-.625-.625v-12.708h-8.75v9.375c0,.345-.28,.625-.625,.625s-.625-.28-.625-.625v-10c0-.346,.28-.625,.625-.625h10c.345,0,.625,.279,.625,.625v13.333c0,.345-.28,.625-.625,.625Z"></path><path class="c" d="M37.5399,17.2507c-.345,0-.625-.28-.625-.625v-1c0-4.066-3.309-7.375-7.375-7.375h-4c-.345,0-.625-.28-.625-.625s.28-.625,.625-.625h4c4.756,0,8.625,3.869,8.625,8.625v1c0,.345-.28,.625-.625,.625"></path><path class="f" d="M37.5399,17.2507c-.345,0-.625-.28-.625-.625v-1c0-4.066-3.309-7.375-7.375-7.375h-4c-.345,0-.625-.28-.625-.625s.28-.625,.625-.625h4c4.756,0,8.625,3.869,8.625,8.625v1c0,.345-.28,.625-.625,.625Z"></path><path class="c" d="M13.5399,17.2507c-.345,0-.625-.28-.625-.625v-1c0-4.066-3.309-7.375-7.375-7.375H3.5399c-.345,0-.625-.28-.625-.625s.28-.625,.625-.625h2c4.756,0,8.625,3.869,8.625,8.625v1c0,.345-.28,.625-.625,.625"></path><path class="f" d="M13.5399,17.2507c-.345,0-.625-.28-.625-.625v-1c0-4.066-3.309-7.375-7.375-7.375H3.5399c-.345,0-.625-.28-.625-.625s.28-.625,.625-.625h2c4.756,0,8.625,3.869,8.625,8.625v1c0,.345-.28,.625-.625,.625Z"></path><path class="c" d="M9.5399,17.2507c-.345,0-.625-.28-.625-.625v-1c0-1.861-1.514-3.375-3.375-3.375H3.5399c-.345,0-.625-.28-.625-.625s.28-.625,.625-.625h2c2.55,0,4.625,2.075,4.625,4.625v1c0,.345-.28,.625-.625,.625"></path><path class="f" d="M9.5399,17.2507c-.345,0-.625-.28-.625-.625v-1c0-1.861-1.514-3.375-3.375-3.375H3.5399c-.345,0-.625-.28-.625-.625s.28-.625,.625-.625h2c2.55,0,4.625,2.075,4.625,4.625v1c0,.345-.28,.625-.625,.625Z"></path><path class="c" d="M21.5399,8.2507h-7c-.345,0-.625-.28-.625-.625s.28-.625,.625-.625h7c.345,0,.625,.28,.625,.625s-.28,.625-.625,.625"></path><path class="f" d="M21.5399,8.2507h-7c-.345,0-.625-.28-.625-.625s.28-.625,.625-.625h7c.345,0,.625,.28,.625,.625s-.28,.625-.625,.625Z"></path><path class="c" d="M41.5399,17.2507c-.345,0-.625-.28-.625-.625v-1c0-6.272-5.103-11.375-11.375-11.375h-1c-.345,0-.625-.28-.625-.625s.28-.625,.625-.625h1c6.961,0,12.625,5.664,12.625,12.625v1c0,.345-.28,.625-.625,.625"></path><path class="f" d="M41.5399,17.2507c-.345,0-.625-.28-.625-.625v-1c0-6.272-5.103-11.375-11.375-11.375h-1c-.345,0-.625-.28-.625-.625s.28-.625,.625-.625h1c6.961,0,12.625,5.664,12.625,12.625v1c0,.345-.28,.625-.625,.625Z"></path><path class="c" d="M24.5399,4.2507h-5.001c-.345,0-.625-.28-.625-.625s.28-.625,.625-.625h5.001c.345,0,.625,.28,.625,.625s-.28,.625-.625,.625"></path><path class="f" d="M24.5399,4.2507h-5.001c-.345,0-.625-.28-.625-.625s.28-.625,.625-.625h5.001c.345,0,.625,.28,.625,.625s-.28,.625-.625,.625Z"></path><path class="c" d="M15.5394,4.2507H3.5394c-.345,0-.625-.28-.625-.625s.28-.625,.625-.625H15.5394c.345,0,.625,.28,.625,.625s-.28,.625-.625,.625"></path><path class="f" d="M15.5394,4.2507H3.5394c-.345,0-.625-.28-.625-.625s.28-.625,.625-.625H15.5394c.345,0,.625,.28,.625,.625s-.28,.625-.625,.625Z"></path></g></svg>