<svg xmlns="http://www.w3.org/2000/svg" id="a" viewBox="0 0 54.0469 34.8919"><defs><style>.b{fill:none;stroke:#0554f2;stroke-miterlimit:10;stroke-width:2px;}</style></defs><path class="b" d="M50.2284,21.3111c1.7162-1.3544,2.8185-3.4532,2.8185-5.8096,0-4.0847-3.3116-7.3963-7.3963-7.3963-.4223,0-.8359,.035-1.2383,.1034-.6919-4.0918-4.2525-7.2086-8.5415-7.2086-3.4763,0-6.4745,2.0479-7.8544,5.0032"></path><g><path class="b" d="M32.0587,14.1537c1.2648-.4488,2.6411-.6943,4.0803-.6943,6.2079,0,11.2409,4.5741,11.2409,10.2167,0,3.5763-2.0216,6.7227-5.0837,8.5466-1.7685,1.0562-3.8845,1.6692-6.1572,1.6692H11.2715c-2.6503,0-5.0622-.9757-6.822-2.552-2.1004-1.5064-3.4495-3.8408-3.4495-6.4617,0-4.5431,4.0529-8.2264,9.0519-8.2264,.422,0,.8369,.026,1.2431,.0769"></path><path class="b" d="M11.556,18.6291c-.0386-.3318-.0584-.6687-.0584-1.0098,0-5.2434,4.6771-9.494,10.4466-9.494,4.4238,0,8.2054,2.499,9.7288,6.0283"></path><path class="b" d="M32.0587,14.1537c-.8967,.2684-1.6198,.7212-2.3876,1.2201"></path></g></svg>