<svg xmlns="http://www.w3.org/2000/svg" id="a" viewBox="0 0 48.3889 54.3726"><defs><style>.b{fill:none;stroke:#0554f2;stroke-linecap:round;stroke-linejoin:round;stroke-width:1.5px;}</style></defs><polygon class="b" points="16.9133 32.1221 .75 36.332 .75 53.6224 16.9133 53.6224 16.9133 32.1221"></polygon><polyline class="b" points="20.558 53.6224 32.2221 53.6224 32.2221 32.1221 19.4265 35.4549"></polyline><polyline class="b" points="35.0584 37.3034 47.3385 37.3034 47.3385 53.6224 32.2221 53.6224"></polyline><g><line class="b" x1="5.9013" y1="42.8914" x2="11.762" y2="42.8914"></line><line class="b" x1="5.9013" y1="48.3539" x2="11.762" y2="48.3539"></line></g><g><line class="b" x1="21.6374" y1="42.6809" x2="27.4981" y2="42.6809"></line><line class="b" x1="21.6374" y1="48.3539" x2="27.4981" y2="48.3539"></line></g><polyline class="b" points="36.9668 53.6226 36.9668 45.106 42.9734 45.106 42.9734 53.6226"></polyline><polyline class="b" points="12.9331 33.1605 11.6891 24.0629 5.7805 24.0629 4.2881 35.4107"></polyline><polyline class="b" points="29.3524 32.7395 28.1084 23.6419 22.1998 23.6419 20.7074 34.9897"></polyline><polyline class="b" points="43.7034 34.8444 42.4593 25.7468 36.5508 25.7468 35.0584 37.0946"></polyline><path class="b" d="M43.2367,23.108c.047-.2297,.0717-.4675,.0717-.711,0-.3817-.0624-.7485-.1746-1.0928,2.5564-.4279,4.5051-2.6494,4.5051-5.3274,0-1.6199-.7139-3.0723-1.8431-4.0626,.5-.709,.7963-1.572,.7963-2.5055,0-2.4059-1.9504-4.3563-4.3563-4.3563-1.2998,0-2.4633,.5724-3.2615,1.4752-1.2633-1.766-3.3297-2.9181-5.6665-2.9181-1.7898,0-3.4214,.6758-4.6551,1.7853-.9557-2.7056-3.5343-4.6448-6.5671-4.6448-3.2835,0-6.0344,2.273-6.7697,5.3308-.5061-.1569-1.044-.2415-1.6017-.2415-1.7591,0-3.3213,.8411-4.3079,2.1426-.7938-1.0688-2.0618-1.7644-3.4955-1.7644-2.4059,0-4.3563,1.9504-4.3563,4.3562,0,1.8253,1.1237,3.3861,2.7161,4.0342-.4838,.7802-.7638,1.6999-.7638,2.6854,0,1.4093,.5712,2.6853,1.4948,3.6088m23.9412,.3503c.1289-.3664,.199-.7605,.199-1.1709,0-.0314-.0039-.0618-.0047-.093,.991,1.2018,2.4913,1.9679,4.1706,1.9679,1.2538,0,2.407-.4283,3.3237-1.1449-.2407,.4771-.3794,1.0145-.3794,1.5854,0,.2436,.0247,.4814,.0717,.711m-23.8754-2.4503c.7881-.8983,1.2658-2.0755,1.2658-3.3644,0-.22-.0155-.4363-.0425-.649l.0425,.0011c1.561,0,2.9666-.6628,3.953-1.7214,.3282,2.1483,2.1784,3.7958,4.4185,3.7958,.094,0,.1859-.0083,.2785-.014-.1792,.4228-.2785,.8877-.2785,1.3759"></path></svg>