<svg xmlns="http://www.w3.org/2000/svg" id="a" viewBox="0 0 50.8333 53.0253"><defs><style>.b{fill:none;stroke:#0554f2;stroke-miterlimit:10;stroke-width:1.5px;}</style></defs><g><path class="b" d="M24.3991,38.7988l-10.9466-14.301C5.9829,14.7392,13.0306,.75,25.4166,.75h0c12.386,0,19.4338,13.9892,11.9641,23.7478l-10.9466,14.301c-.5104,.6668-1.5247,.6668-2.0351,0Z"></path><ellipse class="b" cx="25.4167" cy="15.4179" rx="7.8985" ry="7.8013"></ellipse></g><path class="b" d="M6.6984,18.5496l-5.429-1.2287c-.2659-.0602-.5194,.1393-.5194,.4087v30.6544c0,.0881,.0616,.1645,.1486,.1842l16.2957,3.688,16.4445-3.7217,15.9251,3.6042c.2659,.0602,.5194-.1394,.5194-.4087V21.0756c0-.0881-.0616-.1645-.1486-.1842l-5.8916-1.3334"></path><line class="b" x1="17.1943" y1="37.0978" x2="17.1943" y2="52.0964"></line><line class="b" x1="33.6389" y1="36.9876" x2="33.6389" y2="48.3543"></line></svg>