<svg xmlns="http://www.w3.org/2000/svg" id="a" viewBox="0 0 49.0272 55.3345"><defs><style>.b{stroke-linecap:round;}.b,.c,.d{fill:none;stroke:#0554f2;}.b,.d{stroke-linejoin:round;stroke-width:2px;}.c{stroke-miterlimit:10;}</style></defs><path class="b" d="M29.4769,8.8675h4.2525c1.376,0,2.4915,1.1155,2.4915,2.4915v14.1872"></path><path class="b" d="M36.2209,47.233v4.6099c0,1.376-1.1155,2.4915-2.4915,2.4915H3.4915c-1.376,0-2.4915-1.1155-2.4915-2.4915V11.3589c0-1.376,1.1155-2.4915,2.4915-2.4915H7.744"></path><g><path class="b" d="M34.5,43.5951l-7.2339,1.8085,1.8085-7.2339,12.9316-12.9316c.7941-.7941,2.0815-.7941,2.8756,0l2.5498,2.5498c.7941,.7941,.7941,2.0815,0,2.8756l-12.9316,12.9316Z"></path><line class="b" x1="39.6482" y1="27.5961" x2="45.0736" y2="33.0215"></line></g><line class="b" x1="17.9889" y1="21.0455" x2="28.8991" y2="21.0455"></line><line class="b" x1="17.9889" y1="45.3046" x2="22.8922" y2="45.3046"></line><polyline class="b" points="7.3357 20.2407 9.8365 23.0954 13.6342 18.0177"></polyline><line class="b" x1="17.9889" y1="33.1143" x2="27.2661" y2="33.1143"></line><polyline class="b" points="7.3357 32.3095 9.8365 35.1642 13.6342 30.0865"></polyline><polyline class="b" points="7.3357 44.3784 9.8365 47.233 13.6342 42.1553"></polyline><circle class="c" cx="18.6105" cy="5.6428" r="1.4809"></circle><circle class="c" cx="18.6105" cy="5.6428" r="1.4809"></circle><circle class="c" cx="18.6105" cy="5.6428" r="1.4809"></circle><path class="d" d="M27.4957,5.6428h-2.8698c-.7153,0-1.342-.4815-1.5223-1.1736-.5199-1.9959-2.3345-3.4692-4.4931-3.4692s-3.9733,1.4733-4.4931,3.4691c-.1803,.6922-.807,1.1736-1.5223,1.1736h-2.8698c-1.0942,0-1.9812,.887-1.9812,1.9812v2.2814c0,1.0942,.887,1.9812,1.9812,1.9812H27.4957c1.0942,0,1.9812-.887,1.9812-1.9812v-2.2814c0-1.0942-.887-1.9812-1.9812-1.9812Z"></path><circle class="c" cx="18.6105" cy="5.6428" r="1.4809"></circle></svg>