<svg xmlns="http://www.w3.org/2000/svg" id="a" viewBox="0 0 53.5556 50.9239"><defs><style>.b{fill:#0554f2;}</style></defs><g><g><path class="b" d="M19.1388,21.618l.6505,12.6872c.2461,4.7987,.3921,9.6146,.7387,14.4073,.195,2.6968,3.087,2.1698,5.0183,2.1698h4.4399c1.1826,0,2.4705-.0476,2.9077-1.4148,.1442-.4509,.1249-.9721,.149-1.4419,.046-.8972,.092-1.7944,.138-2.6917,.1477-2.8804,.2954-5.7608,.4431-8.6413,.2525-4.9252,.6755-9.8745,.7592-14.806,.0015-.0895,.0092-.1793,.0138-.2688,.0532-1.0367-1.5588-1.0338-1.6118,0-.456,8.8928-.912,17.7856-1.368,26.6784-.0242,.4715,.0586,.825-.5102,.9741-.3044,.0798-.7391,0-1.0513,0h-6.1757c-.5474,0-1.3846,.1932-1.5361-.4786-.1077-.4772-.0538-1.05-.0788-1.5363-.0509-.9932-.1019-1.9864-.1528-2.9796-.1475-2.8776-.2951-5.7552-.4426-8.6328l-.7191-14.0252c-.0529-1.0321-1.665-1.0384-1.6118,0h0Z"></path><path class="b" d="M33.5911,33.7531c3.1023,0,5.5176-2.5534,5.5954-5.5954,.0381-1.4901,0-2.9861,0-4.4766,0-1.6696,.0462-3.3464,0-5.0155-.0372-1.3444-.543-2.6237-1.5604-3.5308-.9418-.8397-1.9747-1.0529-3.1676-1.2221-2.0338-.2884-4.0264-.8406-6.0763-1.0265-2.7342-.248-5.3628,.3048-8.0308,.7932-.8287,.1517-1.7448,.1951-2.547,.4158-1.4522,.3995-2.65,1.5123-3.1655,2.9243-.5466,1.4973-.2897,3.4056-.2897,4.9664,0,2.0301-.0338,4.0635,0,6.0933,.0512,3.0716,2.4515,5.6738,5.5954,5.6738,1.0371,0,1.0388-1.6118,0-1.6118-2.3654,0-3.9696-1.9616-3.9837-4.217-.0099-1.6046,0-3.2097,0-4.8143,0-1.4567-.0426-2.9205,0-4.3767,.0322-1.1006,.4729-2.0958,1.4266-2.7051,.745-.4759,1.6081-.4679,2.4492-.6219,1.8149-.3323,3.6539-.7761,5.4957-.9245,2.4124-.1944,4.7079,.2547,7.0596,.6853,1.9006,.348,4.3275,.3213,5.034,2.5216,.3879,1.2079,.1485,2.7842,.1485,4.0257v5.8887c0,.8167-.0454,1.5972-.4246,2.3489-.672,1.3321-2.0687,2.1893-3.5591,2.1893-1.0371,0-1.0388,1.6118,0,1.6118h0Z"></path><path class="b" d="M31.4758,6.3118c-.0611,2.5671-2.0937,4.708-4.708,4.708-2.5684,0-4.708-2.1396-4.708-4.708,0-2.564,2.1394-4.7138,4.708-4.708,2.6149,.006,4.6467,2.1358,4.708,4.708,.0247,1.0354,1.6365,1.0393,1.6118,0-.0622-2.6132-1.6103-4.959-4.0763-5.9056-2.5066-.9622-5.4298-.1702-7.1258,1.9019-1.6619,2.0304-1.8993,4.9676-.5521,7.2285,1.3467,2.26,3.987,3.4388,6.5682,2.9882,3.0176-.5267,5.1145-3.2087,5.186-6.2131,.0247-1.0376-1.5871-1.0372-1.6118,0Z"></path></g><path class="b" d="M27.5738,50.0764v-15.474c0-1.0371-1.6118-1.0388-1.6118,0v15.474c0,1.0371,1.6118,1.0388,1.6118,0h0Z"></path></g><g><g><path class="b" d="M35.8392,36.7471c.1679,3.2735,.3357,6.5469,.5035,9.8204,.0374,.7285,.1523,1.4186,.7794,1.899,.5885,.4509,1.2725,.4049,1.966,.4049h5.9162c.692,0,1.4052,.0686,2.0103-.3419,.5898-.4001,.7974-1.0283,.8477-1.7035,.079-1.0597,.109-2.1255,.1634-3.1867l.6391-12.4635c.1542-3.0069,.3084-6.0138,.4625-9.0207,.0532-1.0367-1.5588-1.0338-1.6118,0l-.9608,18.739c-.0772,1.5069-.1545,3.0137-.2318,4.5206-.0242,.4717,.1717,1.6637-.4242,1.8451-.451,.1373-1.1546,0-1.623,0h-5.5176c-.4368,0-.6885-.0186-.7928-.4785-.1482-.654-.0739-1.4424-.1082-2.1102l-.1726-3.367c-.0779-1.519-.1558-3.0379-.2337-4.5569-.0529-1.0321-1.665-1.0384-1.6118,0h0Z"></path><path class="b" d="M48.3216,33.2759c2.8671,0,5.0971-2.3612,5.1666-5.1722,.0388-1.5687,0-3.1432,0-4.7123,0-1.5212,.1896-3.1831-.0673-4.6927-.2489-1.4625-1.2529-2.7053-2.6176-3.2759-.7837-.3277-1.6822-.3544-2.5185-.5075-3.1358-.5741-6.1146-1.1042-9.3203-.5548-1.0203,.1748-.5877,1.7283,.4285,1.5542,2.5213-.4321,4.9118-.0954,7.3855,.3575,1.689,.3092,4.0942,.2613,4.878,2.0752,.4817,1.1146,.22,2.7514,.22,3.9241v5.123c0,.6881,.0171,1.3666-.244,2.0222-.5348,1.3426-1.8668,2.2475-3.3108,2.2475-1.0371,0-1.0388,1.6118,0,1.6118h0Z"></path><path class="b" d="M46.3235,8.2192c-.0601,2.3017-1.8705,4.2084-4.2143,4.2143-2.2936,.0058-4.2201-1.9202-4.2143-4.2143,.0058-2.2986,1.912-4.2143,4.2143-4.2143,2.3441,0,4.1543,1.9167,4.2143,4.2143,.027,1.0352,1.6389,1.0393,1.6118,0-.0637-2.4396-1.5184-4.6185-3.8338-5.4733-2.2616-.835-4.9012-.1233-6.4447,1.7232-1.5698,1.8779-1.8159,4.6142-.5557,6.7257,1.2311,2.0628,3.6475,3.1613,6.011,2.7601,2.8049-.4761,4.7504-2.945,4.8232-5.7357,.0271-1.0376-1.5847-1.0369-1.6118,0Z"></path></g><path class="b" d="M42.9151,48.0656v-14.0886c0-1.0371-1.6118-1.0388-1.6118,0v14.0886c0,1.0371,1.6118,1.0388,1.6118,0h0Z"></path></g><g><g><path class="b" d="M16.0847,36.7471c-.1594,3.1087-.3188,6.2174-.4782,9.3262-.0203,.3967,.1106,1.0243-.3688,1.1864-.3971,.1343-1.0742,0-1.4871,0h-5.5735c-.9255,0-.8875-.3431-.9283-1.1393-.0673-1.3123-.1346-2.6245-.2019-3.9368l-.6159-12.011c-.137-2.6725-.2741-5.345-.4111-8.0175-.0529-1.0321-1.665-1.0384-1.6118,0,.345,6.7275,.6899,13.455,1.0349,20.1824l.2067,4.0314c.0667,1.3001,.53,2.438,2.0594,2.5026,1.7872,.0754,3.5935,0,5.3822,0,1.605,0,3.866,.3272,4.08-1.8854,.328-3.3908,.3505-6.8363,.525-10.239,.0532-1.0367-1.5588-1.0338-1.6118,0h0Z"></path><path class="b" d="M5.2142,31.6641c-2.2003,0-3.5455-1.8348-3.5548-3.8867-.0072-1.5884,0-3.1771,0-4.7656,0-1.1875-.0512-2.3876,0-3.5742,.0622-1.4402,1.0482-2.5367,2.4802-2.7355,.6309-.0876,1.2538-.1803,1.8837-.2956,2.7218-.4983,5.3368-.9688,8.1196-.4919,1.0145,.1739,1.4504-1.3791,.4285-1.5542-2.8876-.4949-5.5946-.1273-8.4284,.3915-2.1861,.4002-4.5455,.4907-5.6554,2.7819-.7012,1.4476-.4401,3.3591-.4401,4.9195,0,1.8215-.0149,3.6437,0,5.4652,.0235,2.8792,2.1894,5.3572,5.1666,5.3572,1.0371,0,1.0388-1.6118,0-1.6118h0Z"></path><path class="b" d="M5.6004,8.2192c.0637,2.4396,1.5185,4.6185,3.8338,5.4733,2.2616,.835,4.9012,.1233,6.4447-1.7232,1.5698-1.878,1.8159-4.6143,.5557-6.7257-1.2311-2.0628-3.6475-3.1613-6.011-2.7601-2.8049,.4761-4.7504,2.945-4.8232,5.7357-.0271,1.0376,1.5847,1.0369,1.6118,0,.0601-2.3017,1.8705-4.2084,4.2143-4.2143,2.2936-.0058,4.2201,1.9202,4.2143,4.2143-.0058,2.2986-1.912,4.2143-4.2143,4.2143-2.3441,0-4.1543-1.9167-4.2143-4.2143-.027-1.0352-1.6389-1.0393-1.6118,0Z"></path></g><path class="b" d="M12.2324,48.0656v-14.0886c0-1.0371-1.6118-1.0388-1.6118,0v14.0886c0,1.0371,1.6118,1.0388,1.6118,0h0Z"></path></g></svg>