<svg xmlns="http://www.w3.org/2000/svg" id="a" viewBox="0 0 51.5 51.5"><defs><style>.b{fill:none;stroke:#0554f2;stroke-linecap:round;stroke-linejoin:round;stroke-width:1.5px;}</style></defs><g><circle class="b" cx="25.75" cy="25.75" r="16.1535" transform="translate(-7.6264 40.3151) rotate(-68.576)"></circle><path class="b" d="M50.75,29.2441v-6.9882l-4.3028-.6371c-.5476-2.7587-1.6326-5.3236-3.1419-7.5813l2.5931-3.4945-4.9414-4.9414-3.4944,2.5931c-2.2577-1.5092-4.8225-2.5943-7.5812-3.1419l-.6372-4.3028h-6.9882l-.6371,4.3028c-2.7587,.5476-5.3236,1.6326-7.5813,3.1419l-3.4945-2.5931-4.9414,4.9414,2.593,3.4944c-1.5093,2.2577-2.5943,4.8226-3.1419,7.5813l-4.3028,.6371v6.9882l4.3028,.6371c.5476,2.7587,1.6326,5.3236,3.1419,7.5813l-2.593,3.4944,4.9414,4.9414,3.4945-2.5931c2.2577,1.5093,4.8226,2.5943,7.5813,3.1419l.6371,4.3028h6.9882l.6372-4.3028c2.7587-.5476,5.3236-1.6326,7.5812-3.1419l3.4944,2.5931,4.9414-4.9414-2.5931-3.4945c1.5093-2.2577,2.5943-4.8226,3.1419-7.5813l4.3028-.6371Z"></path></g><g><path class="b" d="M34.0372,20.8923l-1.6076,15.9339c-.0681,.6937-.6026,1.2196-1.2394,1.2196h-10.8804c-.6369,0-1.1713-.5259-1.2394-1.2196l-1.4054-13.6498"></path><path class="b" d="M33.2365,17.2754c1.1199,0,2.0278,.9079,2.0278,2.0278v1.5891H16.2357v-1.5891c0-1.1199,.9078-2.0278,2.0278-2.0278h14.9731Z"></path><path class="b" d="M22.6769,17.0695v-2.7176c0-.4951,.4016-.8978,.8978-.8978h4.3495c.4962,0,.8989,.4026,.8989,.8978v1.1067"></path></g><g><line class="b" x1="28.4255" y1="34.7811" x2="29.0004" y2="25.4"></line><line class="b" x1="23.0746" y1="34.7811" x2="22.4996" y2="25.4"></line></g></svg>